<?xml version="1.0" encoding="UTF-8" standalone="no"?>
<!-- Created with Inkscape (http://www.inkscape.org/) -->

<svg
   xmlns:dc="http://purl.org/dc/elements/1.1/"
   xmlns:cc="http://creativecommons.org/ns#"
   xmlns:rdf="http://www.w3.org/1999/02/22-rdf-syntax-ns#"
   xmlns:svg="http://www.w3.org/2000/svg"
   xmlns="http://www.w3.org/2000/svg"
   xmlns:sodipodi="http://sodipodi.sourceforge.net/DTD/sodipodi-0.dtd"
   xmlns:inkscape="http://www.inkscape.org/namespaces/inkscape"
   width="297mm"
   height="210mm"
   viewBox="0 0 1052.3622 744.09448"
   id="svg2"
   version="1.1"
   inkscape:version="0.91 r13725"
   sodipodi:docname="blogggr_logo.svg">
  <defs
     id="defs4" />
  <sodipodi:namedview
     id="base"
     pagecolor="#ffffff"
     bordercolor="#666666"
     borderopacity="1.0"
     inkscape:pageopacity="0.0"
     inkscape:pageshadow="2"
     inkscape:zoom="2.8"
     inkscape:cx="525.25021"
     inkscape:cy="463.47293"
     inkscape:document-units="px"
     inkscape:current-layer="layer2"
     showgrid="false"
     inkscape:snap-text-baseline="true"
     inkscape:window-width="1855"
     inkscape:window-height="1056"
     inkscape:window-x="65"
     inkscape:window-y="24"
     inkscape:window-maximized="1"
     inkscape:snap-to-guides="true" />
  <metadata
     id="metadata7">
    <rdf:RDF>
      <cc:Work
         rdf:about="">
        <dc:format>image/svg+xml</dc:format>
        <dc:type
           rdf:resource="http://purl.org/dc/dcmitype/StillImage" />
        <dc:title></dc:title>
      </cc:Work>
    </rdf:RDF>
  </metadata>
  <g
     inkscape:label="LogoText"
     inkscape:groupmode="layer"
     id="layer1"
     transform="translate(0,-308.26772)"
     style="display:inline">
    <path
       style="font-style:normal;font-weight:normal;font-size:40px;line-height:120.00000477%;font-family:sans-serif;letter-spacing:0px;word-spacing:0px;fill:#ffffff;fill-opacity:1;stroke:none;stroke-width:1px;stroke-linecap:butt;stroke-linejoin:miter;stroke-opacity:1"
       d="M 366.63867 256.23047 C 349.03867 256.23047 338.13867 268.23047 338.13867 271.73047 C 338.13867 272.43047 338.63945 272.83203 339.43945 272.83203 C 345.63945 272.83203 349.73867 265.83203 364.13867 265.83203 C 374.33867 265.83203 379.63867 269.53164 379.63867 277.43164 C 379.63867 282.53164 378.23789 285.63164 376.33789 287.43164 C 375.13789 287.13164 373.73867 286.93164 372.13867 286.93164 C 368.13867 286.93164 362.83789 287.33125 362.83789 291.53125 C 362.83789 295.53125 368.13828 296.43164 372.23828 296.43164 C 373.43828 296.43164 374.73867 296.23164 376.13867 295.93164 C 379.63867 299.33164 380.73828 303.63086 380.73828 310.63086 C 380.73828 315.83086 377.53867 324.13086 364.13867 324.13086 C 361.63867 324.13086 358.43906 323.43125 355.03906 322.53125 L 356.03906 307.43164 C 356.03906 303.23164 361.33789 285.93203 361.33789 276.33203 C 361.33789 273.63203 360.93906 270.93164 360.03906 270.93164 C 350.03906 270.93164 341.93945 303.33203 341.93945 318.33203 L 341.93945 318.43164 C 339.23945 317.73164 336.93789 317.13086 335.33789 317.13086 C 333.83789 317.13086 333.03906 317.63047 333.03906 318.73047 C 333.03906 327.33047 356.13867 333.73047 366.63867 333.73047 C 382.83867 333.73047 397.33789 326.53047 397.33789 311.73047 C 397.33789 302.13047 394.03789 296.93203 385.33789 291.83203 C 392.03789 288.23203 395.33789 282.93047 395.33789 276.23047 C 395.33789 265.83047 388.43867 256.23047 366.63867 256.23047 z M 439.23633 257.03125 C 418.63633 257.03125 406.4375 287.43164 406.4375 311.93164 C 406.4375 326.23164 416.73633 331.83203 427.73633 331.83203 C 434.46977 331.83203 441.11907 327.47643 445.22461 322.09961 C 448.25309 327.99808 454.52001 332.33203 464.72266 332.33203 C 472.62266 332.33203 479.22383 328.43125 483.92383 323.03125 C 485.92383 323.43125 488.02227 323.63086 490.32227 323.63086 C 493.15276 323.63086 495.81724 322.90853 497.95703 321.48828 C 499.78848 328.21065 505.43893 332.33203 513.01953 332.33203 C 519.41953 332.33203 523.9207 330.33047 527.2207 327.23047 C 526.7207 329.43047 526.21914 331.73164 525.61914 333.93164 C 510.91914 337.23164 499.11914 337.23086 499.11914 345.63086 C 499.11914 353.13086 506.41953 358.93164 515.01953 358.93164 C 529.51953 358.93164 532.62031 349.93047 535.82031 339.23047 C 544.20454 335.43042 551.294 329.01243 555.61719 322.82617 C 557.80211 328.7507 563.18379 332.33203 570.24609 332.33203 C 576.64609 332.33203 581.14727 330.33047 584.44727 327.23047 C 583.94727 329.43047 583.4457 331.73164 582.8457 333.93164 C 568.1457 337.23164 556.3457 337.23086 556.3457 345.63086 C 556.3457 353.13086 563.64609 358.93164 572.24609 358.93164 C 586.74609 358.93164 589.84686 349.93047 593.04688 339.23047 C 601.4311 335.43042 608.52056 329.01243 612.84375 322.82617 C 615.02867 328.7507 620.41036 332.33203 627.47266 332.33203 C 633.87266 332.33203 638.37383 330.33047 641.67383 327.23047 C 641.17383 329.43047 640.67227 331.73164 640.07227 333.93164 C 625.37227 337.23164 613.57227 337.23086 613.57227 345.63086 C 613.57227 353.13086 620.87266 358.93164 629.47266 358.93164 C 643.97266 358.93164 647.07344 349.93047 650.27344 339.23047 C 659.30525 335.13692 666.83604 328.0073 671.01953 321.40039 C 671.01911 321.45515 671.01796 321.5075 671.01758 321.5625 L 675.28711 315.28516 L 679.07422 309.72852 L 679.23633 309.72852 L 679.19727 309.67578 L 686.83008 299.76367 L 686.83398 299.93555 C 687.62547 300.0341 688.51008 300.13086 689.29883 300.13086 C 690.39883 300.13086 694.39922 299.83047 695.69922 299.23047 C 692.89922 304.83047 691 312.13125 691 319.03125 C 691 325.73125 693.99883 331.83203 700.29883 331.83203 C 711.19883 331.83203 720.19922 320.43047 720.19922 311.73047 C 720.19922 309.43047 719.79883 308.23047 718.79883 308.23047 C 716.89883 308.23047 707.99961 320.33203 704.09961 320.33203 C 703.29961 320.33203 703 319.73086 703 318.63086 C 703 315.03086 706.50039 305.93125 708.90039 295.53125 C 707.70039 291.83125 705.49883 287.03125 703.29883 287.03125 C 700.49883 287.03125 696.8 290.83203 692 290.83203 C 690.5 290.83203 689.29922 290.73203 688.19922 290.33203 C 687.49922 287.13203 684.39883 280.13086 678.79883 280.13086 C 673.79883 280.13086 671.59961 282.63125 671.59961 286.53125 C 671.59961 289.03125 673.49922 291.93164 676.19922 294.43164 C 673.7424 299.22829 672.38498 303.48665 671.67773 309.00977 C 668.71899 311.55954 663.69721 320.10704 653.87305 327.83203 C 657.97305 314.23203 662.77344 296.93125 662.77344 291.53125 C 662.77344 289.13125 659.07227 281.63086 655.07227 281.63086 C 653.37227 281.63086 651.57227 282.53125 650.57227 286.03125 C 648.37227 284.83125 643.07344 283.73047 639.27344 283.73047 C 630.97344 283.73047 623.77383 288.93164 619.17383 294.43164 C 615.16636 299.30346 612.89392 305.47153 612.10156 311.57812 C 608.97956 315.38227 604.27184 321.83603 596.64648 327.83203 C 600.74648 314.23203 605.54688 296.93125 605.54688 291.53125 C 605.54688 289.13125 601.8457 281.63086 597.8457 281.63086 C 596.1457 281.63086 594.3457 282.53125 593.3457 286.03125 C 591.1457 284.83125 585.84686 283.73047 582.04688 283.73047 C 573.74688 283.73047 566.54727 288.93164 561.94727 294.43164 C 557.9398 299.30346 555.66735 305.47153 554.875 311.57812 C 551.753 315.38227 547.04528 321.83603 539.41992 327.83203 C 543.51992 314.23203 548.32031 296.93125 548.32031 291.53125 C 548.32031 289.13125 544.61914 281.63086 540.61914 281.63086 C 538.91914 281.63086 537.11914 282.53125 536.11914 286.03125 C 533.91914 284.83125 528.62031 283.73047 524.82031 283.73047 C 516.52031 283.73047 509.3207 288.93164 504.7207 294.43164 C 500.82693 299.16525 498.57075 305.12289 497.71875 311.05859 C 496.10937 312.62436 493.87659 314.23047 490.02344 314.23047 L 489.42383 314.23047 C 490.92383 310.73047 491.72266 307.13203 491.72266 303.83203 C 491.72266 297.63203 488.52344 292.93164 482.02344 292.93164 C 473.42344 292.93164 468.82227 299.83047 468.82227 305.73047 C 468.82227 311.73047 471.42383 316.53086 475.92383 319.63086 C 473.82383 320.93086 471.32383 321.63086 468.42383 321.63086 C 461.22383 321.63086 457.72266 316.93125 457.72266 311.03125 C 457.72266 299.33125 466.02344 291.03125 477.52344 291.03125 C 483.32344 291.03125 485.32227 290.33164 485.32227 289.43164 C 485.32227 286.53164 477.82383 283.53125 470.42383 283.53125 C 453.52383 283.53125 443.02344 297.53086 443.02344 312.63086 C 443.02344 312.67006 443.02715 312.70887 443.02734 312.74805 C 439.71605 316.66904 435.48357 320.23047 429.23633 320.23047 C 424.23633 320.23047 420.63672 316.83164 420.63672 309.43164 L 420.63672 305.43164 C 433.13672 289.13164 448.4375 278.23164 448.4375 265.93164 C 448.4375 260.33164 444.93633 257.03125 439.23633 257.03125 z M 435.9375 266.83203 C 437.1375 266.83203 437.63672 267.53125 437.63672 269.03125 C 437.63672 275.23125 430.9375 279.13164 421.9375 292.93164 C 424.8375 276.33164 431.6375 266.83203 435.9375 266.83203 z M 534.91992 290.33203 C 533.21992 296.33203 530.81953 305.33164 529.51953 311.43164 C 526.91953 318.63164 522.0207 321.63086 517.7207 321.63086 C 513.2207 321.63086 512.01953 317.83164 512.01953 313.93164 C 512.01953 299.93164 524.91992 291.73203 534.91992 290.33203 z M 592.14648 290.33203 C 590.44648 296.33203 588.04609 305.33164 586.74609 311.43164 C 584.14609 318.63164 579.24727 321.63086 574.94727 321.63086 C 570.44727 321.63086 569.24609 317.83164 569.24609 313.93164 C 569.24609 299.93164 582.14648 291.73203 592.14648 290.33203 z M 649.37305 290.33203 C 647.67305 296.33203 645.27266 305.33164 643.97266 311.43164 C 641.37266 318.63164 636.47383 321.63086 632.17383 321.63086 C 627.67383 321.63086 626.47266 317.83164 626.47266 313.93164 C 626.47266 299.93164 639.37305 291.73203 649.37305 290.33203 z M 482.52344 301.03125 C 484.12344 301.03125 484.72266 302.63203 484.72266 304.33203 C 484.72266 306.33203 484.22344 308.93164 483.02344 311.43164 C 481.32344 309.73164 480.42383 307.43203 480.42383 304.83203 C 480.42383 303.23203 481.32344 301.03125 482.52344 301.03125 z M 522.51953 343.13086 C 520.41953 347.83086 517.91992 351.23047 514.91992 351.23047 C 512.41992 351.23047 508.32031 349.73203 508.32031 346.83203 C 508.32031 344.73203 512.81953 345.03086 522.51953 343.13086 z M 579.74609 343.13086 C 577.64609 347.83086 575.14648 351.23047 572.14648 351.23047 C 569.64648 351.23047 565.54688 349.73203 565.54688 346.83203 C 565.54688 344.73203 570.04609 345.03086 579.74609 343.13086 z M 636.97266 343.13086 C 634.87266 347.83086 632.37305 351.23047 629.37305 351.23047 C 626.87305 351.23047 622.77344 349.73203 622.77344 346.83203 C 622.77344 344.73203 627.27266 345.03086 636.97266 343.13086 z "
       transform="translate(0,308.26772)"
       id="text3355"
       inkscape:export-xdpi="17.434645"
       inkscape:export-ydpi="17.434645" />
  </g>
  <g
     inkscape:groupmode="layer"
     id="layer2"
     inkscape:label="lLayer"
     style="display:inline;opacity:1">
    <path
       style="fill:none;fill-rule:evenodd;stroke:#ffffff;stroke-width:5.80000019;stroke-linecap:butt;stroke-linejoin:miter;stroke-miterlimit:4;stroke-dasharray:none;stroke-opacity:1;fill-opacity:1"
       d="m 416.25001,303.3802 c -10.71429,10.17857 -25.89286,18.92857 -25.89286,18.92857"
       id="path4306"
       inkscape:connector-curvature="0"
       inkscape:export-xdpi="90"
       inkscape:export-ydpi="90" />
    <ellipse
       style="fill:#ffffff;fill-opacity:1;stroke:#000000;stroke-width:0.10862524;stroke-miterlimit:4;stroke-dasharray:none;stroke-opacity:1"
       id="path4347"
       cx="515.43036"
       cy="356.38531"
       rx="8.5819845"
       ry="2.4579341"
       inkscape:export-xdpi="90"
       inkscape:export-ydpi="90" />
    <ellipse
       style="display:inline;opacity:1;fill:#ffffff;fill-opacity:1;stroke:#000000;stroke-width:0.10862524;stroke-miterlimit:4;stroke-dasharray:none;stroke-opacity:1"
       id="path4347-1"
       cx="573.05157"
       cy="356.32217"
       rx="8.5819845"
       ry="2.4579341"
       inkscape:export-xdpi="90"
       inkscape:export-ydpi="90" />
    <ellipse
       style="display:inline;opacity:1;fill:#ffffff;fill-opacity:1;stroke:#000000;stroke-width:0.10862524;stroke-miterlimit:4;stroke-dasharray:none;stroke-opacity:1"
       id="path4347-1-1"
       cx="629.99994"
       cy="356.23734"
       rx="8.5819845"
       ry="2.4579341"
       inkscape:export-xdpi="90"
       inkscape:export-ydpi="90" />
  </g>
</svg>
